PathFileType	4	(X/Y/Z)	/Users/itak/Documents/Research/Walk-IL/dataset/trc/00311_00010.trc
DataRate	CameraRate	NumFrames	NumMarkers	Units	OrigDataRate	OrigDataStartFrame	OrigNumFrames
100.000000	100.000000	4	53	mm	100.000000	393	629
Frame#	Time	RPSI			LPSI			L3			STRN			T10			C7			CLAV			RBAK			LBAK			LSHO			LUPA			LAEL			LAOL			LWTS			LWPS			LFRA			LIFD			LHPS			LHTS			RSHO			RUPA			RAEL			RAOL			RWTS			RWPS			RFRA			RIFD			RHTS			RHPS			RBHD			LFHD			RFHD			LBHD			LHIP			RHIP			RASI			LASI			LKNE			LTHI			LANK			LTIP			LTOE			LMT1			LMT5			LHEE			RKNE			RTHI			RANK			RTIP			RTOE			RMT1			RMT5			RHEE			
		X1	Y1	Z1	X2	Y2	Z2	X3	Y3	Z3	X4	Y4	Z4	X5	Y5	Z5	X6	Y6	Z6	X7	Y7	Z7	X8	Y8	Z8	X9	Y9	Z9	X10	Y10	Z10	X11	Y11	Z11	X12	Y12	Z12	X13	Y13	Z13	X14	Y14	Z14	X15	Y15	Z15	X16	Y16	Z16	X17	Y17	Z17	X18	Y18	Z18	X19	Y19	Z19	X20	Y20	Z20	X21	Y21	Z21	X22	Y22	Z22	X23	Y23	Z23	X24	Y24	Z24	X25	Y25	Z25	X26	Y26	Z26	X27	Y27	Z27	X28	Y28	Z28	X29	Y29	Z29	X30	Y30	Z30	X31	Y31	Z31	X32	Y32	Z32	X33	Y33	Z33	X34	Y34	Z34	X35	Y35	Z35	X36	Y36	Z36	X37	Y37	Z37	X38	Y38	Z38	X39	Y39	Z39	X40	Y40	Z40	X41	Y41	Z41	X42	Y42	Z42	X43	Y43	Z43	X44	Y44	Z44	X45	Y45	Z45	X46	Y46	Z46	X47	Y47	Z47	X48	Y48	Z48	X49	Y49	Z49	X50	Y50	Z50	X51	Y51	Z51	X52	Y52	Z52	X53	Y53	Z53	

394	3.93	-9.476454734802246	958.9440307617188	-359.0836181640625	125.1091690063477	972.773193359375	-470.14208984375	78.69586181640625	1036.44091796875	-410.6335754394531	232.2428741455078	1204.29541015625	-202.4494476318359	83.16929626464844	1149.563842773438	-421.9467163085938	131.1331329345703	1393.031860351562	-390.0813293457031	205.7549591064453	1308.89013671875	-252.5562591552734	38.25598526000977	1257.685180664062	-395.0356140136719	210.3754425048828	1354.352905273438	-458.763671875	300.4505310058594	1358.704956054688	-408.4026184082031	358.3828735351562	1245.748046875	-464.7818298339844	426.9684143066406	1060.822875976562	-445.8386535644531	352.4541931152344	1015.764282226562	-452.2922668457031	541.2830810546875	924.3998413085938	-299.8248596191406	563.403076171875	892.4220581054688	-360.8048400878906	482.6121520996094	980.2312622070312	-417.8177490234375	638.7796630859375	784.2863159179688	-229.6503295898438	607.474609375	827.2278442382812	-322.8268127441406	617.0672607421875	862.863037109375	-267.9256896972656	28.53257751464844	1376.244018554688	-252.4176177978516	-37.88863372802734	1324.947631835938	-231.0318450927734	-125.5348739624023	1073.514038085938	-260.2879943847656	-53.21372985839844	1063.283447265625	-321.2323608398438	-80.55187225341797	831.0769653320312	-221.7879028320312	-164.2449188232422	842.4539184570312	-235.8751373291016	-139.3397827148438	1005.075439453125	-243.2813110351562	-112.7423095703125	648.8839721679688	-253.5871276855469	-108.4559707641602	713.0079956054688	-209.8245697021484	-172.5308380126953	728.5882568359375	-234.0942230224609	77.94364929199219	1536.781372070312	-352.8914794921875	254.9893188476562	1604.335693359375	-256.4139709472656	173.0431518554688	1598.396240234375	-215.4429931640625	210.4153289794922	1536.965087890625	-413.6949462890625	243.3384704589844	927.7699584960938	-487.0121459960938	-17.12089729309082	900.7655639648438	-215.3629913330078	114.2993316650391	908.4676513671875	-176.8114166259766	302.6029357910156	920.4729614257812	-346.2695617675781	196.2352294921875	465.7441101074219	-495.2665100097656	230.6552124023438	605.5142822265625	-487.3345031738281	49.63066482543945	55.22761535644531	-627.5211791992188	125.9371871948242	257.8279724121094	-573.0646362304688	132.8519287109375	35.08314514160156	-429.985595703125	56.85324478149414	30.42518615722656	-461.0159606933594	135.4502410888672	40.1852912902832	-540.9443359375	-26.09231567382812	60.87480545043945	-625.9230346679688	147.7350463867188	459.728759765625	-137.6708526611328	52.36489105224609	705.536376953125	-151.5827789306641	278.326171875	36.68858337402344	-80.48580169677734	196.9071655273438	355.1767883300781	-107.3304290771484	417.1147155761719	110.4973907470703	41.48218536376953	422.4920959472656	86.35580444335938	-23.27349853515625	315.5741271972656	60.14672088623047	16.70672225952148	292.2953186035156	21.40673065185547	-148.8697052001953	
395	3.94	-3.61017370223999	958.1104125976562	-351.3540954589844	131.5020751953125	971.1757202148438	-461.8729553222656	84.92970275878906	1034.85107421875	-402.797607421875	237.0115661621094	1203.040649414062	-193.9369964599609	89.63299560546875	1147.786376953125	-414.147216796875	136.5096282958984	1391.616577148438	-382.526123046875	210.5154113769531	1307.584838867188	-244.1264343261719	44.24343109130859	1255.791625976562	-388.0903015136719	216.3430633544922	1353.065551757812	-450.7330932617188	306.0781860351562	1357.59375	-399.5176696777344	364.1681518554688	1244.363891601562	-455.3451843261719	431.9129028320312	1059.872680664062	-436.1802368164062	357.8049011230469	1014.307800292969	-443.3483581542969	546.3896484375	926.6500854492188	-288.3345642089844	569.350830078125	893.9545288085938	-348.6321411132812	488.0873107910156	980.0694580078125	-407.3891296386719	644.9016723632812	788.9246826171875	-214.9969177246094	613.8109130859375	829.9100952148438	-309.1786193847656	622.5880126953125	866.538330078125	-254.8848419189453	32.66130065917969	1374.370971679688	-245.7975158691406	-33.68424987792969	1322.955810546875	-225.1346588134766	-121.0913848876953	1071.807006835938	-256.5805969238281	-47.50166320800781	1061.503173828125	-316.1295776367188	-77.46942138671875	829.1912231445312	-217.9748687744141	-160.8419494628906	840.8956909179688	-233.4490966796875	-135.2500610351562	1003.401489257812	-239.9070739746094	-109.5036163330078	647.181884765625	-250.8384246826172	-105.9580459594727	711.0311279296875	-206.8410034179688	-169.4242095947266	727.04248046875	-232.2646026611328	82.61933898925781	1535.5927734375	-345.5174560546875	259.1517333984375	1603.201049804688	-247.9627838134766	177.0301361083984	1597.2060546875	-207.4549560546875	215.4972229003906	1535.883911132812	-405.534912109375	249.7410888671875	925.904296875	-478.198486328125	-11.81486511230469	900.0794677734375	-207.5648193359375	119.492561340332	907.2202758789062	-168.6851196289062	308.8066711425781	918.6814575195312	-337.2865905761719	201.6310424804688	464.5343017578125	-488.2502746582031	236.565673828125	604.1367797851562	-479.3679504394531	50.38094711303711	57.34697341918945	-627.0699462890625	129.1650238037109	258.2294311523438	-569.1421508789062	132.8917999267578	34.80946350097656	-429.7920227050781	57.01444244384766	30.74271202087402	-460.8893432617188	135.6444396972656	40.44125366210938	-540.55517578125	-25.23958587646484	64.09108734130859	-625.7337036132812	153.1626739501953	458.7186584472656	-130.7670135498047	58.22463989257812	704.8399047851562	-143.7993774414062	280.2710571289062	35.97385787963867	-78.97216033935547	201.9462890625	353.3678283691406	-101.4967193603516	418.521484375	104.4058380126953	45.97288513183594	424.5913391113281	80.92287445068359	-18.98139190673828	316.5076904296875	56.78091430664062	19.13189888000488	295.2083740234375	21.63057327270508	-147.2704315185547	
396	3.95	2.316799640655518	957.7017822265625	-343.5490112304688	138.1061706542969	969.8028564453125	-453.4145202636719	91.28890228271484	1033.45458984375	-394.7683410644531	241.7472229003906	1202.0830078125	-185.2638092041016	96.15676116943359	1146.231201171875	-406.197265625	141.8709106445312	1390.459594726562	-374.8756713867188	215.2349090576172	1306.54443359375	-235.5806732177734	50.12995910644531	1254.144653320312	-381.0829162597656	222.3371124267578	1352.02197265625	-442.556884765625	311.6959228515625	1356.751098632812	-390.5177917480469	369.8690795898438	1243.211791992188	-445.8294677734375	436.6446228027344	1059.052612304688	-426.580322265625	362.8644714355469	1013.078125	-434.4370727539062	551.0051879882812	928.6271362304688	-277.0659790039062	574.775390625	895.3125610351562	-336.7290649414062	493.2203063964844	979.9379272460938	-397.06591796875	650.2811889648438	793.0631713867188	-200.8535003662109	619.5133666992188	832.2880249023438	-295.9216613769531	627.498291015625	869.7926635742188	-242.1864929199219	36.71417236328125	1372.72314453125	-239.1142578125	-29.50921821594238	1321.134521484375	-219.1177368164062	-116.4181137084961	1070.165771484375	-252.5911865234375	-41.58270263671875	1059.783935546875	-310.7049560546875	-74.19917297363281	827.3541259765625	-213.8884124755859	-157.2084045410156	839.45947265625	-230.7396392822266	-130.9325714111328	1001.818359375	-236.2232513427734	-106.0739440917969	645.5532836914062	-247.6701812744141	-103.2698287963867	709.16357421875	-203.5219268798828	-166.1500091552734	725.6341552734375	-230.2319030761719	87.16685485839844	1534.68701171875	-338.0679626464844	263.2325744628906	1602.365478515625	-239.4297943115234	180.9340667724609	1596.298461914062	-199.3825225830078	220.4969482421875	1535.107421875	-397.2997741699219	256.319580078125	924.140380859375	-469.0599060058594	-6.612861633300781	899.9193725585938	-199.6518859863281	124.6056747436523	906.3555297851562	-160.3647155761719	315.0563354492188	917.043212890625	-327.9281616210938	207.1304931640625	463.4833984375	-480.89404296875	242.5863037109375	602.8997802734375	-471.0429992675781	51.33994293212891	59.85537338256836	-626.53662109375	132.5457305908203	258.9278259277344	-565.02880859375	132.9530334472656	34.58263397216797	-429.6175231933594	57.25906753540039	31.21894454956055	-460.74560546875	135.9365386962891	40.70520401000977	-540.1251220703125	-24.1488151550293	67.82737731933594	-625.4771118164062	158.5855712890625	458.1558227539062	-123.6730499267578	64.16523742675781	704.6652221679688	-135.8156585693359	281.6033325195312	35.60519790649414	-78.26110076904297	206.8653106689453	351.8928527832031	-95.67147827148438	419.5519714355469	97.44588470458984	49.91474151611328	426.204345703125	74.82057952880859	-15.29854774475098	316.8868713378906	53.20906066894531	20.80534934997559	297.5410461425781	22.32187271118164	-146.4778442382812	
397	3.96	8.326574325561523	957.7901611328125	-335.7125244140625	144.9677429199219	968.7307739257812	-444.7658996582031	97.81341552734375	1032.307861328125	-386.5296630859375	246.4231872558594	1201.487426757812	-176.4359436035156	102.7363586425781	1144.96337890625	-398.1299743652344	147.2166748046875	1389.610961914062	-367.142822265625	219.9004211425781	1305.833984375	-226.9326171875	55.93603134155273	1252.795043945312	-374.03125	228.3537445068359	1351.273803710938	-434.2321472167969	317.3035888671875	1356.226684570312	-381.4095153808594	375.4879150390625	1242.35107421875	-436.2575073242188	441.1815795898438	1058.408081054688	-417.0514526367188	367.6382751464844	1012.133178710938	-425.5612182617188	555.147705078125	930.3250122070312	-266.0328369140625	579.6793212890625	896.4834594726562	-325.12255859375	498.0162963867188	979.8651123046875	-386.8631286621094	654.9158935546875	796.6422729492188	-187.2522888183594	624.5822143554688	834.3262939453125	-283.0879211425781	631.8153686523438	872.5923461914062	-229.8504943847656	40.71947860717773	1371.37060546875	-232.3712615966797	-25.36454010009766	1319.543701171875	-212.9913482666016	-111.5000457763672	1068.63720703125	-248.2765350341797	-35.45722961425781	1058.180786132812	-304.9357299804688	-70.72761535644531	825.5969848632812	-209.5297088623047	-153.3446197509766	838.1983032226562	-227.7100677490234	-126.3750152587891	1000.377807617188	-232.1963653564453	-102.4885330200195	644.0626220703125	-244.1228942871094	-100.3686752319336	707.448486328125	-199.8749694824219	-162.7097625732422	724.4173583984375	-227.9150848388672	91.58611297607422	1534.125122070312	-330.5525207519531	267.2325439453125	1601.869873046875	-230.8132019042969	184.7542877197266	1595.712646484375	-191.2266235351562	225.4147796630859	1534.690551757812	-388.9955749511719	263.1070556640625	922.5393676757812	-459.5791931152344	-1.530076026916504	900.3632202148438	-191.6828002929688	129.5994567871094	905.9442749023438	-151.8620147705078	321.2583312988281	915.5901489257812	-318.2088928222656	212.7304382324219	462.6320190429688	-473.1980590820312	248.6986236572266	601.84326171875	-462.3600158691406	52.53816986083984	62.78342819213867	-625.8947143554688	136.0961303710938	259.9751586914062	-560.7264404296875	133.0468292236328	34.40398788452148	-429.4559020996094	57.60026931762695	31.86681938171387	-460.571044921875	136.3596496582031	40.99288177490234	-539.6366577148438	-22.7824649810791	72.12359619140625	-625.0992431640625	163.9371795654297	458.1070556640625	-116.4196090698242	70.09234619140625	705.0556030273438	-127.6597366333008	282.5523071289062	35.56242370605469	-77.98823547363281	211.6447143554688	350.8663024902344	-89.79564666748047	420.4322204589844	90.14350128173828	53.36677169799805	427.510009765625	68.53716278076172	-12.13826465606689	316.9991455078125	49.681884765625	22.00007057189941	299.4418029785156	23.38716697692871	-146.1380767822266	
